/* XPM */
static xpm_row_t const cueCursorXpm[] = {
/* columns rows colors chars-per-pixel */
"12 16 8 1 ",
"  c #000000",
". c #464646",
"X c #9C5A3C",
"o c #A66B50",
"O c #B07B63",
"+ c #2F3699",
"@ c #FFFFFF",
"# c None",
/* pixels */
"#    #######",
"  +++  #####",
" +++@@@ ####",
" ++@@@Xo ###",
" +@@@XXXo ##",
"# @@X.XXXo #",
"# @XXX.XXXo ",
"## OXXX.XXXo",
"### oXXX.XXX",
"#### oXXX.XX",
"##### oXXX.X",
"###### oXXX.",
"####### oXXX",
"######## oXX",
"######### oX",
"########## o"
};
