/* XPM */
static xpm_row_t const ballRingXpm[] = {
"40 40 78 1 ",
"  c None",
". c #ffffff",
"X c #ffffff",
"o c #ffffff",
"O c #ffffff",
"+ c #ffffff",
"@ c #ffffff",
"# c None",
"$ c #ffffff",
"% c #ffffff",
"& c #ffffff",
"* c #ffffff",
"= c #ffffff",
"- c #ffffff",
"; c #ffffff",
": c #ffffff",
"> c #ffffff",
", c #ffffff",
"< c #ffffff",
"1 c #ffffff",
"2 c #ffffff",
"3 c #ffffff",
"4 c #ffffff",
"5 c #ffffff",
"6 c #ffffff",
"7 c #ffffff",
"8 c #ffffff",
"9 c #ffffff",
"0 c #ffffff",
"q c #ffffff",
"w c #ffffff",
"e c #ffffff",
"r c #ffffff",
"t c #ffffff",
"y c #ffffff",
"u c #ffffff",
"i c #ffffff",
"p c #ffffff",
"a c #ffffff",
"s c #ffffff",
"d c #ffffff",
"f c #ffffff",
"g c #ffffff",
"h c #ffffff",
"j c #ffffff",
"k c #ffffff",
"l c #ffffff",
"z c #ffffff",
"x c #ffffff",
"c c #ffffff",
"v c #ffffff",
"b c #ffffff",
"n c #ffffff",
"m c #ffffff",
"M c #ffffff",
"N c #ffffff",
"B c #ffffff",
"V c #ffffff",
"C c #ffffff",
"Z c #ffffff",
"A c #ffffff",
"S c #ffffff",
"D c #ffffff",
"F c #ffffff",
"G c #ffffff",
"H c #ffffff",
"J c #ffffff",
"K c #ffffff",
"L c #ffffff",
"P c #ffffff",
"I c #ffffff",
"U c #ffffff",
"Y c #ffffff",
"T c #ffffff",
"R c #ffffff",
"E c #ffffff",
"W c #ffffff",
"Q c #ffffff",
/* pixels */
"                .XoOOoX.                ",
"             +@#$%&**&%=-;:             ",
"           >$,<1        234$5           ",
"         6789              0qwe         ",
"        rty                  uit        ",
"       =p                      as       ",
"      df                        gh      ",
"     =f                          jk     ",
"    rp                            at    ",
"   6t                              rl   ",
"   7y                              zx   ",
"  >8                                cv  ",
"  $9                                bn  ",
" +,                                  mM ",
" @<                                  vc ",
" #1                                  NB ",
".$                                    VC",
"X%                                    ZA",
"o&                                    SD",
"O*                                    iF",
"O*                                    iF",
"o&                                    SD",
"X%                                    ZA",
".=                                    %G",
" -2                                  HJ ",
" ;3                                  KL ",
" :4                                  kP ",
"  $0                                In  ",
"  5q                                UY  ",
"   wu                              GT   ",
"   ei                              r+   ",
"    ta                            RE    ",
"     sg                          W4     ",
"      hj                        WQ      ",
"       ka                      R4       ",
"        trz                  GrE        ",
"         lxcb              IUT+         ",
"           vnmvN        HKknY           ",
"             McBVZSiiSZ%JLP             ",
"                CADFFDAG                "
};
