/* XPM */
static xpm_row_t const exitButtonSelectedXpm[] = {
/* columns rows colors chars-per-pixel */
"51 51 120 2 ",
"   c None",
".  c #000000",
"X  c #0C0604",
"o  c #020B05",
"O  c #0D0B06",
"+  c #01050D",
"@  c #030E0A",
"#  c #0F0D08",
"$  c #140C07",
"%  c #160C08",
"&  c #1B0F0A",
"*  c #04140A",
"=  c #061C0D",
"-  c #0E1C0D",
";  c #1C100A",
":  c #17190D",
">  c #1A1B0E",
",  c #010712",
"<  c #010A15",
"1  c #0A0C13",
"2  c #010A1B",
"3  c #0B0C18",
"4  c #061613",
"5  c #0A191A",
"6  c #1C1714",
"7  c #1D1F10",
"8  c #161A1A",
"9  c #22130C",
"0  c #29170F",
"q  c #25190F",
"w  c #251C10",
"e  c #2D1910",
"r  c #351C13",
"t  c #391F15",
"y  c #06220E",
"u  c #092310",
"i  c #0A2C12",
"p  c #0B2E1A",
"a  c #1E2112",
"s  c #0A3415",
"d  c #0B3A17",
"f  c #0C3418",
"g  c #0C3F19",
"h  c #113817",
"j  c #2C2114",
"k  c #302B1F",
"l  c #071021",
"z  c #0A1222",
"x  c #0B1823",
"c  c #0D122C",
"v  c #161C24",
"b  c #1C1E25",
"n  c #141C2D",
"m  c #102232",
"M  c #222222",
"N  c #22222D",
"B  c #2F2B32",
"V  c #252D3E",
"C  c #32313B",
"Z  c #3A343A",
"A  c #452317",
"S  c #532A1B",
"D  c #5C2E1D",
"F  c #64321F",
"G  c #663220",
"H  c #6D3622",
"J  c #743823",
"K  c #7D3D26",
"L  c #0D431A",
"P  c #0E481C",
"I  c #114B1E",
"U  c #0F511F",
"Y  c #10551F",
"T  c #105B22",
"R  c #126325",
"E  c #136A26",
"W  c #146E28",
"Q  c #15752A",
"!  c #157C2C",
"~  c #5C423C",
"^  c #644137",
"/  c #6C4337",
"(  c #744332",
")  c #784332",
"_  c #7B4936",
"`  c #171B5E",
"'  c #2E3543",
"]  c #3D3B45",
"[  c #1A1F61",
"{  c #1A1E6C",
"}  c #1C227B",
"|  c #20246A",
" . c #3F4350",
".. c #564343",
"X. c #61555E",
"o. c #803F27",
"O. c #814027",
"+. c #85422A",
"@. c #8A4329",
"#. c #8F4A30",
"$. c #926E71",
"%. c #AE7F6B",
"&. c #16812E",
"*. c #FEED00",
"=. c #BB917E",
"-. c #1F2587",
";. c #292F8D",
":. c #2C3290",
">. c #4E509C",
",. c #4E55A5",
"<. c #5E63AD",
"1. c #997E8A",
"2. c #958997",
"3. c #A895A5",
"4. c #A497AC",
"5. c #B2B3BF",
"6. c #DAC4BA",
"7. c #999CCB",
"8. c #CCC9D7",
"9. c #CBCBD8",
/* pixels */
"    . . . . . . . . . . . . . . . . . . . . . . . . . . . . . . . . . . . . . . . . . . . . . . .     ",
"  . M M M M M M M M M M M M M M M M M M M M M M M M M M M M M M M M M M M M M M M M M M M M M M M .   ",
". M *.*.&.&.&.&.&.&.&.&.&.&.&.&.&.&.&.&.&.&.&.&.&.&.&.&.&.&.&.&.&.&.&.&.&.&.&.&.&.&.&.&.&.&.&.*.*.M . ",
". M *.&.&.&.&.&.&.&.&.&.&.&.&.&.&.&.&.&.&.&.&.&.&.&.&.&.&.&.&.&.&.&.&.&.&.&.&.&.&.&.&.&.&.&.&.&.*.M . ",
". M &.&.&.&.&.&.&.&.&.&.&.&.&.&.&.&.&.&.&.&.&.&.&.&.&.&.&.&.&.&.&.&.&.&.&.&.&.&.&.&.&.&.&.&.&.&.&.M . ",
". M &.&.&.&.&.&.&.&.&.&.&.&.&.&.&.&.&.&.&.&.&.&.&.&.&.&.&.&.&.&.&.&.&.&.&.&.&.&.&.&.&.&.&.&.&.&.&.M . ",
". M &.&.&.&.&.&.&.&.&.&.&.&.&.&.&.&.&.&.&.&.&.&.&.&.&.&.&.&.&.&.&.&.! ! &.&.&.&.&.&.&.&.&.&.&.&.&.M . ",
". M &.&.&.&.&.&.&.&.&.&.&.&.Q ! &.&.&.&.&.&.&.&.&.&.&.&.&.&.&.&.&.&.Q U T E &.&.&.&.&.&.&.&.&.&.&.M . ",
". M &.&.&.&.&.&.&.&.&.&.&.P o 5 s &.&.&.&.&.&.&.&.&.&.&.&.&.&.&.&.Q f l m y Q ! &.&.&.&.&.&.&.&.&.M . ",
". M &.&.&.&.&.&.&.&.&.&.P . ` } 3 s &.&.&.&.&.&.&.&.&.&.&.&.&.&.E i b | { c p R &.&.&.&.&.&.&.&.&.M . ",
". M &.&.&.&.&.&.&.&.&.P . ` -.;.9.6 s &.&.&.&.&.&.&.&.&.&.&.&.W f k 2.,.-.{ c p W &.&.&.&.&.&.&.&.M . ",
". M &.&.&.&.&.&.&.&.! * ` -.-.-.4.K % s &.&.&.&.&.&.&.&.&.&.Q h j _ 1.<.-.-.{ x W &.&.&.&.&.&.&.&.M . ",
". M &.&.&.&.&.&.&.&.! 4 { :.-.7.6.@.K % s &.&.&.&.&.&.&.&.Q i & F #.%.8.>.<.[ 5 Q &.&.&.&.&.&.&.&.M . ",
". M &.&.&.&.&.&.&.&.&.g + 5.3.6.@.@.@.K % s &.&.&.&.&.&.E i q J @.@.@.=.$.X.8 d Q &.&.&.&.&.&.&.&.M . ",
". M &.&.&.&.&.&.&.&.&.&.g $ H @.@.@.@.@.K % s &.&.&.&.Q h j H @.@.@.@.+.S a I ! &.&.&.&.&.&.&.&.&.M . ",
". M &.&.&.&.&.&.&.&.&.&.&.g X H @.@.@.@.@.K % s &.&.W s w F +.@.@.@.@.F a L ! &.&.&.&.&.&.&.&.&.&.M . ",
". M &.&.&.&.&.&.&.&.&.&.&.&.g X H @.@.@.@.@.K % s E i & F @.@.@.@.+.S # d Q &.&.&.&.&.&.&.&.&.&.&.M . ",
". M &.&.&.&.&.&.&.&.&.&.&.&.&.g X H @.@.@.@.@.K % * j O.@.@.@.@.O.S : L Q &.&.&.&.&.&.&.&.&.&.&.&.M . ",
". M &.&.&.&.&.&.&.&.&.&.&.&.&.&.g X H @.@.@.@.@.K % 0 @.@.@.@.@.D a I &.&.&.&.&.&.&.&.&.&.&.&.&.&.M . ",
". M &.&.&.&.&.&.&.&.&.&.&.&.&.&.&.L X H @.@.@.@.@.K % r @.@.+.D > g Q &.&.&.&.&.&.&.&.&.&.&.&.&.&.M . ",
". M &.&.&.&.&.&.&.&.&.&.&.&.&.&.&.&.L X H @.@.@.@.@.K % r +.S O g Q &.&.&.&.&.&.&.&.&.&.&.&.&.&.&.M . ",
". M &.&.&.&.&.&.&.&.&.&.&.&.&.&.&.&.! s X H @.@.@.@.@.K % 9 7 P ! &.&.&.&.&.&.&.&.&.&.&.&.&.&.&.&.M . ",
". M &.&.&.&.&.&.&.&.&.&.&.&.&.&.&.! U * o X H @.@.@.@.@.K % * * Q &.&.&.&.&.&.&.&.&.&.&.&.&.&.&.&.M . ",
". M &.&.&.&.&.&.&.&.&.&.&.&.&.&.&.T = . 9 r X H @.@.@.@.@.K % . * W &.&.&.&.&.&.&.&.&.&.&.&.&.&.&.M . ",
". M &.&.&.&.&.&.&.&.! &.&.&.! ! T - ; r H @.A X H @.@.@.@.@.K % . * W &.&.&.&.&.&.&.&.&.&.&.&.&.&.M . ",
". M &.&.&.&.&.&.&.&.! ! &.! U s - t H H +.@.@.A X H @.@.@.@.@.K H t * W T &.&.&.&.&.&.&.&.&.&.&.&.M . ",
". M &.&.&.&.&.&.&.&.&.&.Q g @ < v ~ @.@.@.@.@.@.e X H @.@.@.@.@.@.) b < . L &.&.&.&.&.&.&.&.&.&.&.M . ",
". M &.&.&.&.&.&.&.&.&.Q s . , 2 l ' ( @.@.@.o.S $ o X H @.@.@.@.+. .n 2 < . L &.&.&.&.&.&.&.&.&.&.M . ",
". M &.&.&.&.&.&.&.&.Q d @ < 2 2 l B / +.@.@.H 9 . o . X H @.@.@.@.Z 2 2 2 < . L &.&.&.&.&.&.&.&.&.M . ",
". M &.&.&.&.&.&.&.! L * , 2 2 2 2 n ] ^ / @.G X i ! = . H @.+.@...V 2 2 2 2 < . L &.&.&.&.&.&.&.&.M . ",
". M &.&.&.&.&.&.Q s o , 2 2 2 2 2 2 n N C ~ j i R &.&.= e )  .C V 2 2 2 2 2 2 < . L &.&.&.&.&.&.&.M . ",
". M &.&.&.&.&.Q d o < 2 2 2 2 2 2 2 2 2 z 1 u R ! &.&.&.= 8 n 2 2 2 2 2 2 2 2 2 < . L &.&.&.&.&.&.M . ",
". M &.&.&.&.&.Q y . , 2 2 2 2 2 2 2 2 2 2 4 P &.&.&.&.&.&.< 2 2 2 2 2 2 2 2 2 2 < . . R &.&.&.&.&.M . ",
". M &.&.&.&.&.&.L @ + 2 2 2 2 2 2 2 2 2 + @ U &.&.&.&.&.R . , 2 2 2 2 2 2 2 2 2 2 . d &.&.&.&.&.&.M . ",
". M &.&.&.&.&.Q s o , 2 2 2 2 2 2 2 2 , = T &.&.&.&.&.&.&.U . , 2 2 2 2 2 2 2 2 2 . s &.&.&.&.&.&.M . ",
". M &.&.&.&.&.Q y . . < 2 2 2 2 2 2 , * P Q &.&.&.&.&.&.&.&.U . , 2 2 2 2 2 2 2 + . . R &.&.&.&.&.M . ",
". M &.&.&.&.&.&.R y . . , 2 2 2 2 + @ P Q &.&.&.&.&.&.&.&.&.&.U . , 2 2 2 2 2 + . . P &.&.&.&.&.&.M . ",
". M &.&.&.&.&.&.&.T y . . + + , + * Y &.&.&.&.&.&.&.&.&.&.&.&.&.U . , < 2 < + . . P &.&.&.&.&.&.&.M . ",
". M &.&.&.&.&.&.&.! R y . @ o . * U ! &.&.&.&.&.&.&.&.&.&.&.&.&.&.U . . . . . . P &.&.&.&.&.&.&.&.M . ",
". M &.&.&.&.&.&.&.&.&.E y P U = P Q &.&.&.&.&.&.&.&.&.&.&.&.&.&.&.&.U . d g . P &.&.&.&.&.&.&.&.&.M . ",
". M &.&.&.&.&.&.&.&.&.&.Q ! ! ! ! &.&.&.&.&.&.&.&.&.&.&.&.&.&.&.&.&.&.E &.&.E &.&.&.&.&.&.&.&.&.&.M . ",
". M &.&.&.&.&.&.&.&.&.&.&.&.&.&.&.&.&.&.&.&.&.&.&.&.&.&.&.&.&.&.&.&.&.&.&.&.&.&.&.&.&.&.&.&.&.&.&.M . ",
". M &.&.&.&.&.&.&.&.&.&.&.&.&.&.&.&.&.&.&.&.&.&.&.&.&.&.&.&.&.&.&.&.&.&.&.&.&.&.&.&.&.&.&.&.&.&.&.M . ",
". M &.&.&.&.&.&.&.&.&.&.! &.&.&.&.&.&.&.&.&.&.&.&.&.&.&.&.&.&.&.&.&.&.&.&.&.&.&.&.&.&.&.&.&.&.&.&.M . ",
". M &.&.&.&.&.&.&.&.&.&.! &.&.&.&.&.&.&.&.&.&.&.&.&.&.&.&.&.&.&.&.&.&.&.&.&.&.&.&.&.&.&.&.&.&.&.&.M . ",
". M &.&.&.&.&.&.&.&.&.&.&.&.&.&.&.&.&.&.&.&.&.&.&.&.&.&.&.&.&.&.&.&.&.&.&.&.&.&.&.&.&.&.&.&.&.&.&.M . ",
". M &.&.&.&.&.&.&.&.&.&.&.&.&.&.&.&.&.&.&.&.&.&.&.&.&.&.&.&.&.&.&.&.&.&.&.&.&.&.&.&.&.&.&.&.&.&.&.M . ",
". M *.&.&.&.&.&.&.&.&.&.&.&.&.&.&.&.&.&.&.&.&.&.&.&.&.&.&.&.&.&.&.&.&.&.&.&.&.&.&.&.&.&.&.&.&.&.*.M . ",
". M *.*.&.&.&.&.&.&.&.&.&.&.&.&.&.&.&.&.&.&.&.&.&.&.&.&.&.&.&.&.&.&.&.&.&.&.&.&.&.&.&.&.&.&.&.*.*.M . ",
"  . M M M M M M M M M M M M M M M M M M M M M M M M M M M M M M M M M M M M M M M M M M M M M M M .   ",
"    . . . . . . . . . . . . . . . . . . . . . . . . . . . . . . . . . . . . . . . . . . . . . . .     "
};
