/* XPM */
static const xpm_row_t ballXpm[] = {
/* columns rows colors chars-per-pixel */
"40 40 58 1 ",
"  c None",
". c #ffffff",
"X c #ffffff",
"o c #ffffff",
"O c #ffffff",
"+ c #ffffff",
"@ c #ffffff",
"# c #ffffff",
"$ c #ffffff",
"% c #ffffff",
"& c #ffffff",
"* c #ffffff",
"= c #ffffff",
"- c #ffffff",
"; c #ffffff",
": c #ffffff",
"> c #ffffff",
", c #ffffff",
"< c #ffffff",
"1 c #ffffff",
"2 c #ffffff",
"3 c #ffffff",
"4 c #ffffff",
"5 c #ffffff",
"6 c #ffffff",
"7 c #ffffff",
"8 c #ffffff",
"9 c #ffffff",
"0 c #ffffff",
"q c #ffffff",
"w c #ffffff",
"e c #ffffff",
"r c #ffffff",
"t c #ffffff",
"y c #ffffff",
"u c #ffffff",
"i c #ffffff",
"p c #ffffff",
"a c #ffffff",
"s c #ffffff",
"d c #ffffff",
"f c #ffffff",
"g c #ffffff",
"h c #ffffff",
"j c #ffffff",
"k c None",
"l c #ffffff",
"z c #ffffff",
"x c #ffffff",
"c c #ffffff",
"v c #ffffff",
"b c #ffffff",
"n c #ffffff",
"m c #ffffff",
"M c #ffffff",
"N c #ffffff",
"B c #ffffff",
"V c #ffffff",
/* pixels */
"              .XoO++++OoX.              ",
"           @#$++++++++++++$%@           ",
"         &*++++++++++++++++++=&         ",
"        -;++++++++++++++++++++;-        ",
"      :>++++++++++++++++++++++++,:      ",
"     :<++++++++++++++++++++++++++<:     ",
"    12++++++++++++++++++++++++++++34    ",
"    5++++++++++++++++++++++++++++++6    ",
"   7++++++++++++++++++++++++++++++++8   ",
"  90++++++++++++++++++++++++++++++++q:  ",
"  w++++++++++++++++++++++++++++++++++w  ",
" er++++++++++++++++++++++++++++++++++rt ",
" %++++++++++++++++++++++++++++++++++++* ",
"4y++++++++++++++++++++++++++++++++++++u ",
"i++++++++++++++++++++++++++++++++++++++p",
"a++++++++++++++++++++++++++++++++++++++s",
"d++++++++++++++++++++++++++++++++++++++f",
"g++++++++++++++++++++++++++++++++++++++h",
"j++++++++++++++++++++++++++++++++++++++j",
"k++++++++++++++++++++++++++++++++++++++k",
"k++++++++++++++++++++++++++++++++++++++k",
"j++++++++++++++++++++++++++++++++++++++j",
"h++++++++++++++++++++++++++++++++++++++h",
"d++++++++++++++++++++++++++++++++++++++f",
"a++++++++++++++++++++++++++++++++++++++a",
"i++++++++++++++++++++++++++++++++++++++i",
"4l++++++++++++++++++++++++++++++++++++y4",
" z++++++++++++++++++++++++++++++++++++x ",
" tr++++++++++++++++++++++++++++++++++re ",
"  c++++++++++++++++++++++++++++++++++%  ",
"  :q++++++++++++++++++++++++++++++++v9  ",
"   b++++++++++++++++++++++++++++++++n   ",
"    m++++++++++++++++++++++++++++++m    ",
"    13++++++++++++++++++++++++++++21    ",
"     9<++++++++++++++++++++++++++<M     ",
"      &N++++++++++++++++++++++++N&      ",
"        BV++++++++++++++++++++VB        ",
"         &*++++++++++++++++++*&         ",
"           @#$++++++++++++$#@           ",
"              .XoO++++Oo8.              "
};
