/* XPM */
static xpm_row_t const exitButtonXpm[] = {
/* columns rows colors chars-per-pixel */
"51 51 10 1 ",
"  c None",
". c #000000",
"X c #031129",
"o c #333333",
"O c #4F596A",
"+ c #9C5A3C",
"@ c #229442",
"# c #FFF200",
"$ c #2F3699",
"% c #FFFFFF",
/* pixels */
"  ...............................................  ",
" .ooooooooooooooooooooooooooooooooooooooooooooooo. ",
".o##@@@@@@@@@@@@@@@@@@@@@@@@@@@@@@@@@@@@@@@@@@@##o.",
".o#@@@@@@@@@@@@@@@@@@@@@@@@@@@@@@@@@@@@@@@@@@@@@#o.",
".o@@@@@@@@@@@@@@@@@@@@@@@@@@@@@@@@@@@@@@@@@@@@@@@o.",
".o@@@@@@@@@.....@@@@@@@@@@@@@@@@@@.....@@@@@@@@@@o.",
".o@@@@@@@@.$$$$$.@@@@@@@@@@@@@@@@.$$$$$.@@@@@@@@@o.",
".o@@@@@@@@.$$$$$.@@@@@@@@@@@@@@@@.$$$$$.@@@@@@@@@o.",
".o@@@@@@@@.%$$$%.@@@@@@@@@@@@@@@@.%$$$%.@@@@@@@@@o.",
".o@@@@@@@@.+%%%+.@@@@@@@@@@@@@@@@.+%%%+.@@@@@@@@@o.",
".o@@@@@@@@.+++++.@@@@@@@@@@@@@@@@.+++++.@@@@@@@@@o.",
".o@@@@@@@@.+++++.@@@@@@@@@@@@@@@@.+++++.@@@@@@@@@o.",
".o@@@@@@@@.+++++.@@@@@@@@@@@@@@@@.+++++.@@@@@@@@@o.",
".o@@@@@@@@.+++++.@@@@@@@@@@@@@@@@.+++++.@@@@@@@@@o.",
".o@@@@@@@@.+++++.@@@@@@@@@@@@@@@@.+++++.@@@@@@@@@o.",
".o@@@@@@@@.+++++.@@@@@@@@@@@@@@@@.+++++.@@@@@@@@@o.",
".o@@@@@@@@.+++++.@@@@@@@@@@@@@@@@.+++++.@@@@@@@@@o.",
".o@@@@@@@@.+++++.@@@@@@@@@@@@@@@@.+++++.@@@@@@@@@o.",
".o@@@@@@@@.+++++.@@@@@@@@@@@@@@@@.+++++.@@@@@@@@@o.",
".o@@@@@@@@.+++++.@@@@@@@@@@@@@@@@.+++++.@@@@@@@@@o.",
".o@@@@@@@@.+++++.@@@@@@@@@@@@@@@@.+++++.@@@@@@@@@o.",
".o@@@@@@@@.+++++.@@@@@@@@@@@@@@@@.+++++.@@@@@@@@@o.",
".o@@@@@@@@.+++++.@@@@@@@@@@@@@@@@.+++++.@@@@@@@@@o.",
".o@@@@@@@@.+++++.@@@@@@@@@@@@@@@@.+++++.@@@@@@@@@o.",
".o@@@@@@@@.+++++.@@@@@@@@@@@@@@@@.+++++.@@@@@@@@@o.",
".o@@@@@@@@.+++++.@@@@@@@@@@@@@@@@.+++++.@@@@@@@@@o.",
".o@@@@@@@@.+++++.@@@@@@@@@@@@@@@@.+++++.@@@@@@@@@o.",
".o@@@@@@@..+++++..@@@@@@@@@@@@@@..+++++..@@@@@@@@o.",
".o@@@@@@@..+++++..@@@@@@@@@@@@@@..+++++..@@@@@@@@o.",
".o@@@@@@@..+++++..@@@@@@@@@@@@@@..+++++..@@@@@@@@o.",
".o@@@@@@@.+++++++.@@@@@@@@@@@@@@.+++++++.@@@@@@@@o.",
".o@@@@@@@.+++++++.@@@@@@@@@@@@@@.+++++++.@@@@@@@@o.",
".o@@@@@@@.OO+++OO.@@@@@@@@@@@@@@.OO+++OO.@@@@@@@@o.",
".o@@@@@@.XXXOOOXXX.@@@@@@@@@@@@.XXXOOOXXX.@@@@@@@o.",
".o@@@@@@.XXXXXXXXX.@@@@@@@@@@@@.XXXXXXXXX.@@@@@@@o.",
".o@@@@@@.XXXXXXXXX.@@@@@@@@@@@@.XXXXXXXXX.@@@@@@@o.",
".o@@@@@@.XXXXXXXXX.@@@@@@@@@@@@.XXXXXXXXX.@@@@@@@o.",
".o@@@@@@.XXXXXXXXX.@@@@@@@@@@@@.XXXXXXXXX.@@@@@@@o.",
".o@@@@@@.XXXXXXXXX.@@@@@@@@@@@@.XXXXXXXXX.@@@@@@@o.",
".o@@@@@@.XXXXXXXXX.@@@@@@@@@@@@.XXXXXXXXX.@@@@@@@o.",
".o@@@@@@.XXXXXXXXX.@@@@@@@@@@@@.XXXXXXXXX.@@@@@@@o.",
".o@@@@@@..XXXXXXX..@@@@@@@@@@@@..XXXXXXX..@@@@@@@o.",
".o@@@@@@...XXXXX...@@@@@@@@@@@@...XXXXX...@@@@@@@o.",
".o@@@@@@@@.......@@@@@@@@@@@@@@@@.......@@@@@@@@@o.",
".o@@@@@@@@.......@@@@@@@@@@@@@@@@.......@@@@@@@@@o.",
".o@@@@@@@@@@@@@@@@@@@@@@@@@@@@@@@@@@@@@@@@@@@@@@@o.",
".o@@@@@@@@@@@@@@@@@@@@@@@@@@@@@@@@@@@@@@@@@@@@@@@o.",
".o#@@@@@@@@@@@@@@@@@@@@@@@@@@@@@@@@@@@@@@@@@@@@@#o.",
".o##@@@@@@@@@@@@@@@@@@@@@@@@@@@@@@@@@@@@@@@@@@@##o.",
" .ooooooooooooooooooooooooooooooooooooooooooooooo. ",
"  ...............................................  "
};
