/* XPM */
static xpm_row_t const spinCircleXpm[] = {
/* columns rows colors chars-per-pixel */
"11 11 2 1 ",
"  c #ED1C24",
". c None",
/* pixels */
"...     ...",
".. ..... ..",
". ....... .",
" ......... ",
" ......... ",
" ......... ",
" ......... ",
" ......... ",
". ....... .",
".. ..... ..",
"...     ..."
};
