/* XPM */
static xpm_row_t const ballSlot2Xpm[] = {
/* columns rows colors chars-per-pixel */
"32 32 5 1 ",
"  c #000000",
". c #353636",
"X c #4D6DF3",
"o c #FFFFFF",
"O c None",
/* pixels */
"OOOOOOOOOOOOO.......OOOOOOOOOOOO",
"OOOOOOOOOO...XXXXXXX...OOOOOOOOO",
"OOOOOOOO..XXXXXXXXXXXXX..OOOOOOO",
"OOOOOOO.XXXXXXXXXXXXXXXXX.OOOOOO",
"OOOOOO.XXXXXXXXXXXXXXXXXXX.OOOOO",
"OOOOO.XXXXXXXXXXXXXXXXXXXXX.OOOO",
"OOOO.XXXXXXXXXXXXXXXXXXXXXXX.OOO",
"OOO.XXXXXXXXXXXXXXXXXXXXXXXXX.OO",
"OOO.XXXXXXXXXXoooooXXXXXXXXXX.OO",
"OO.XXXXXXXXXoooooooooXXXXXXXXX.O",
"OO.XXXXXXXXoooooooooooXXXXXXXX.O",
"OO.XXXXXXXoooooooooooooXXXXXXX.O",
"O.XXXXXXXXooooo   oooooXXXXXXXX.",
"O.XXXXXXXooooo ooo oooooXXXXXXX.",
"O.XXXXXXXoooooooo ooooooXXXXXXX.",
"O.XXXXXXXooooooo oooooooXXXXXXX.",
"O.XXXXXXXoooooo ooooooooXXXXXXX.",
"O.XXXXXXXooooo     oooooXXXXXXX.",
"O.XXXXXXXXoooooooooooooXXXXXXXX.",
"OO.XXXXXXXoooooooooooooXXXXXXX.O",
"OO.XXXXXXXXoooooooooooXXXXXXXX.O",
"OO.XXXXXXXXXoooooooooXXXXXXXXX.O",
"OOO.XXXXXXXXXXoooooXXXXXXXXXX.OO",
"OOO.XXXXXXXXXXXXXXXXXXXXXXXXX.OO",
"OOOO.XXXXXXXXXXXXXXXXXXXXXXX.OOO",
"OOOOO.XXXXXXXXXXXXXXXXXXXXX.OOOO",
"OOOOOO.XXXXXXXXXXXXXXXXXXX.OOOOO",
"OOOOOOO.XXXXXXXXXXXXXXXXX.OOOOOO",
"OOOOOOOO..XXXXXXXXXXXXX..OOOOOOO",
"OOOOOOOOOO...XXXXXXX...OOOOOOOOO",
"OOOOOOOOOOOOO.......OOOOOOOOOOOO",
"OOOOOOOOOOOOOOOOOOOOOOOOOOOOOOOO"
};
