/* XPM */
static xpm_row_t const bola9MapXpm[] = {
/* columns rows colors chars-per-pixel */
"53 53 3 1 ",
"  c #ffffff",
". c #FFC20E",
"X c #000000",
/* pixels */
"                                                     ",
"                                                     ",
"                                                     ",
"                                                     ",
"                                                     ",
"                                                     ",
"                                                     ",
"                                                     ",
"                                                     ",
"                                                     ",
"                                                     ",
"                                                     ",
"                                                     ",
"                                                     ",
"                                                     ",
"                                                     ",
"                                                     ",
".....................................................",
".....................................................",
".........................     .......................",
".......................         .....................",
"......................           ....................",
".....................             ...................",
".....................     XXX     ...................",
"....................     X   X     ..................",
"....................     X   X     ..................",
"....................      XXXX     ..................",
"....................         X     ..................",
"....................        X      ..................",
".....................      X      ...................",
".....................             ...................",
"......................           ....................",
".......................         .....................",
".........................     .......................",
".....................................................",
".....................................................",
"                                                     ",
"                                                     ",
"                                                     ",
"                                                     ",
"                                                     ",
"                                                     ",
"                                                     ",
"                                                     ",
"                                                     ",
"                                                     ",
"                                                     ",
"                                                     ",
"                                                     ",
"                                                     ",
"                                                     ",
"                                                     ",
"                                                     "
};
