/* XPM */
static xpm_row_t const bola3MapXpm[] = {
/* columns rows colors chars-per-pixel */
"53 53 3 1 ",
"  c #000000",
". c #ED1C24",
"X c #ffffff",
/* pixels */
".....................................................",
".....................................................",
".....................................................",
".....................................................",
".....................................................",
".....................................................",
".....................................................",
".....................................................",
".....................................................",
".....................................................",
".....................................................",
".....................................................",
".....................................................",
".....................................................",
".....................................................",
".....................................................",
".....................................................",
".....................................................",
".....................................................",
".........................XXXXX.......................",
".......................XXXXXXXXX.....................",
"......................XXXXXXXXXXX....................",
".....................XXXX   XXXXXX...................",
".....................XXXXXXX XXXXX...................",
"....................XXXXXXXX XXXXXX..................",
"....................XXXXXXXX XXXXXX..................",
"....................XXXXX   XXXXXXX..................",
"....................XXXXXXXX XXXXXX..................",
"....................XXXXXXXX XXXXXX..................",
".....................XXXXXXX XXXXX...................",
".....................XXXX   XXXXXX...................",
"......................XXXXXXXXXXX....................",
".......................XXXXXXXXX.....................",
".........................XXXXX.......................",
".....................................................",
".....................................................",
".....................................................",
".....................................................",
".....................................................",
".....................................................",
".....................................................",
".....................................................",
".....................................................",
".....................................................",
".....................................................",
".....................................................",
".....................................................",
".....................................................",
".....................................................",
".....................................................",
".....................................................",
".....................................................",
"....................................................."
};
