/* XPM */
static xpm_row_t const bola4MapXpm[] = {
/* columns rows colors chars-per-pixel */
"53 53 3 1 ",
"  c #000000",
". c #6F3198",
"X c #ffffff",
/* pixels */
".....................................................",
".....................................................",
".....................................................",
".....................................................",
".....................................................",
".....................................................",
".....................................................",
".....................................................",
".....................................................",
".....................................................",
".....................................................",
".....................................................",
".....................................................",
".....................................................",
".....................................................",
".....................................................",
".....................................................",
".....................................................",
".....................................................",
".........................XXXXX.......................",
".......................XXXXXXXXX.....................",
"......................XXXXXXXXXXX....................",
".....................XXXXXXXXXXXXX...................",
".....................XXXXXXX XXXXX...................",
"....................XXXXXXX  XXXXXX..................",
"....................XXXXXX X XXXXXX..................",
"....................XXXXX XX XXXXXX..................",
"....................XXXXX     XXXXX..................",
"....................XXXXXXXX XXXXXX..................",
".....................XXXXXXXXXXXXX...................",
".....................XXXXXXXXXXXXX...................",
"......................XXXXXXXXXXX....................",
".......................XXXXXXXXX.....................",
".........................XXXXX.......................",
".....................................................",
".....................................................",
".....................................................",
".....................................................",
".....................................................",
".....................................................",
".....................................................",
".....................................................",
".....................................................",
".....................................................",
".....................................................",
".....................................................",
".....................................................",
".....................................................",
".....................................................",
".....................................................",
".....................................................",
".....................................................",
"....................................................."
};
