/* XPM */
static xpm_row_t const bola2MapXpm[] = {
/* columns rows colors chars-per-pixel */
"53 53 3 1 ",
"  c #4D6DF3",
". c #ffffff",
"X c #000000",
/* pixels */
"                                                     ",
"                                                     ",
"                                                     ",
"                                                     ",
"                                                     ",
"                                                     ",
"                                                     ",
"                                                     ",
"                                                     ",
"                                                     ",
"                                                     ",
"                                                     ",
"                                                     ",
"                                                     ",
"                                                     ",
"                                                     ",
"                                                     ",
"                                                     ",
"                                                     ",
"                         .....                       ",
"                       .........                     ",
"                      ...........                    ",
"                     .............                   ",
"                     .....XXX.....                   ",
"                    .....X...X.....                  ",
"                    ........X......                  ",
"                    .......X.......                  ",
"                    ......X........                  ",
"                    .....XXXXX.....                  ",
"                     .............                   ",
"                     .............                   ",
"                      ...........                    ",
"                       .........                     ",
"                         .....                       ",
"                                                     ",
"                                                     ",
"                                                     ",
"                                                     ",
"                                                     ",
"                                                     ",
"                                                     ",
"                                                     ",
"                                                     ",
"                                                     ",
"                                                     ",
"                                                     ",
"                                                     ",
"                                                     ",
"                                                     ",
"                                                     ",
"                                                     ",
"                                                     ",
"                                                     "
};
