/* XPM */
static xpm_row_t const bola12Xpm[] = {
/* columns rows colors chars-per-pixel */
"30 30 4 1 ",
"  c #000000",
". c #6F3198",
"X c #FFFFFF",
"o c None",
/* pixels */
"ooooooooooooXXXXXXXooooooooooo",
"oooooooooXXXXXXXXXXXXXoooooooo",
"oooooooXXXXXXXXXXXXXXXXXoooooo",
"ooooooXXXXXXXXXXXXXXXXXXXooooo",
"oooooXXXXXXXXXXXXXXXXXXXXXoooo",
"oooo.......................ooo",
"ooo.........................oo",
"ooo..........XXXXX..........oo",
"oo.........XXXXXXXXX.........o",
"oo........XXXXXXXXXXX........o",
"oo.......XXXXXXXXXXXXX.......o",
"o........XXXX XXX  XXX........",
"o.......XXXX  XX XX XXX.......",
"o.......XXXXX XXXXX XXX.......",
"o.......XXXXX XXXX XXXX.......",
"o.......XXXXX XXX XXXXX.......",
"o.......XXXX   X    XXX.......",
"o........XXXXXXXXXXXXX........",
"oo.......XXXXXXXXXXXXX.......o",
"oo........XXXXXXXXXXX........o",
"oo.........XXXXXXXXX.........o",
"ooo..........XXXXX..........oo",
"ooo.........................oo",
"oooo.......................ooo",
"oooooXXXXXXXXXXXXXXXXXXXXXoooo",
"ooooooXXXXXXXXXXXXXXXXXXXooooo",
"oooooooXXXXXXXXXXXXXXXXXoooooo",
"oooooooooXXXXXXXXXXXXXoooooooo",
"ooooooooooooXXXXXXXooooooooooo",
"oooooooooooooooooooooooooooooo"
};
