/* XPM */
static xpm_row_t const GXpm[] = {
/* columns rows colors chars-per-pixel */
"12 16 4 1 ",
"  c #000000",
". c #031129",
"X c #FFFFFF",
"o c None",
/* pixels */
".......... o",
".XXXXXXXXX o",
".XXXXXXXXX..",
".XX.........",
".XX.oooooooo",
".XX.oooooooo",
".XX.oo......",
".XX.oo.XXXX.",
".XX.oo.XXXX.",
".XX.oo...XX.",
".XX.oooo.XX.",
".XX.oooo.XX.",
".XX......XX.",
"...XXXXXXXX.",
"oo.XXXXXXXX.",
"oo.........."
};
