/* XPM */
static xpm_row_t const JXpm[] = {
/* columns rows colors chars-per-pixel */
"12 16 3 1 ",
"  c #031129",
". c #FFFFFF",
"X c None",
/* pixels */
"            ",
" .......... ",
" .......... ",
"       ..   ",
"XXXXXX .. XX",
"XXXXXX .. XX",
"XXXXXX .. XX",
"XXXXXX .. XX",
"XXXXXX .. XX",
"XXXXXX .. XX",
"    XX .. XX",
" .. XX .. XX",
" ..    .. XX",
"   ...... XX",
"XX ...... XX",
"XX        XX"
};
