/* XPM */
static char *K[] = {
/* columns rows colors chars-per-pixel */
"12 16 4 1 ",
"  c black",
". c #031129",
"X c white",
"o c None",
/* pixels */
"....oooo....",
".XX.oooo.XX.",
".XX.oo...XX.",
".XX.oo.XX...",
".XX.oo.XX.oo",
".XX.o .X..oo",
".XX...XX ooo",
".XXXXXXX ooo",
".XXXXXXX ooo",
".XX...XX ooo",
".XX.o .X..oo",
".XX.oo.XX.oo",
".XX.oo.XX...",
".XX.oo...XX.",
".XX.oooo.XX.",
"....oooo...."
};
