/* XPM */
static xpm_row_t const LXpm[] = {
/* columns rows colors chars-per-pixel */
"12 16 3 1 ",
"  c #031129",
". c #FFFFFF",
"X c None",
/* pixels */
"    XXXXXXXX",
" .. XXXXXXXX",
" .. XXXXXXXX",
" .. XXXXXXXX",
" .. XXXXXXXX",
" .. XXXXXXXX",
" .. XXXXXXXX",
" .. XXXXXXXX",
" .. XXXXXXXX",
" .. XXXXXXXX",
" .. XXXXXXXX",
" .. XXXXXXXX",
" ..         ",
"   ........ ",
"XX ........ ",
"XX          "
};
