/* XPM */
static xpm_row_t const MXpm[] = {
/* columns rows colors chars-per-pixel */
"12 16 4 1 ",
"  c #000000",
". c #031129",
"X c #FFFFFF",
"o c None",
/* pixels */
"....oooo....",
".XX.oooo.XX.",
".XX.oooo.XX.",
".XX. oo .XX.",
".XXX....XXX.",
".XXXXXXXXXX.",
".XXXXXXXXXX.",
".XX..XX..XX.",
".XX.    .XX.",
".XX.oooo.XX.",
".XX.oooo.XX.",
".XX.oooo.XX.",
".XX.oooo.XX.",
".XX.oooo.XX.",
".XX.oooo.XX.",
"....oooo...."
};
