/* XPM */
static char *N[] = {
/* columns rows colors chars-per-pixel */
"12 16 3 1 ",
"  c #031129",
". c white",
"X c None",
/* pixels */
"XX          ",
"XX ........ ",
"   ........ ",
" ..      .. ",
" .. XXXX .. ",
" .. XXXX .. ",
" .. XXXX .. ",
" .. XXXX .. ",
" .. XXXX .. ",
" .. XXXX .. ",
" .. XXXX .. ",
" .. XXXX .. ",
" .. XXXX .. ",
" .. XXXX .. ",
" .. XXXX .. ",
"    XXXX    "
};
