/* XPM */
static xpm_row_t const RXpm[] = {
/* columns rows colors chars-per-pixel */
"12 16 4 1 ",
"  c #000000",
". c #031129",
"X c #FFFFFF",
"o c None",
/* pixels */
"............",
".XXXXXXXXXX.",
".XXXXXXXXXX.",
".XX.....XXX.",
".XX.ooo XXX.",
".XX.ooo XXX.",
".XX.ooo XXX.",
".XX.ooo XXX.",
".XX.....X.  ",
".XXXXXXXX.oo",
".XXXXXXXX...",
".XX....XXXX.",
".XX.oo.XXXX.",
".XX.oo...XX.",
".XX.oooo.XX.",
"....oooo...."
};
