/* XPM */
static char *S[] = {
/* columns rows colors chars-per-pixel */
"12 16 3 1 ",
"  c #031129",
". c white",
"X c None",
/* pixels */
"XX          ",
"XX ........ ",
"   ........ ",
" ..         ",
" .. XXXXXXXX",
" .. XXXXXXXX",
" ..         ",
" .......... ",
" .......... ",
"         .. ",
"XXXXXXXX .. ",
"XXXXXXXX .. ",
"         .. ",
" ........   ",
" ........ XX",
"          XX"
};
