/* XPM */
static xpm_row_t const WXpm[] = {
/* columns rows colors chars-per-pixel */
"12 16 4 1 ",
"  c #000000",
". c #031129",
"X c #FFFFFF",
"o c None",
/* pixels */
"....oooo....",
".XX.oooo.XX.",
".XX.oooo.XX.",
".XX.oooo.XX.",
".XX.oooo.XX.",
".XX.oooo.XX.",
".XX.oooo.XX.",
".XX.     XX.",
".XX.XXXX.XX.",
".XXXXXXXXXX.",
".XXXX  XXXX.",
".XX......XX.",
".XX.oooo.XX.",
".X..oooo..X.",
".. oooooo ..",
"..oooooooo.."
};
