/* XPM */
static char *Z[] = {
/* columns rows colors chars-per-pixel */
"12 16 4 1 ",
"  c black",
". c #031129",
"X c white",
"o c None",
/* pixels */
".           ",
".XXXXXXXXXX.",
".........XX.",
"oooooooo.XX.",
"oooooooo.XX.",
"oooooo...XX.",
"oooooo.XX...",
"oooo...XX.oo",
"oooo.XX...oo",
"oo...XX.oooo",
"oo XX   oooo",
"o .XX oooooo",
"..XXX   ....",
".XXXXXXXXXX.",
".XXXXXXXXXX.",
"............"
};
