/* XPM */
static xpm_row_t const menuMouseHoverXpm[] = {
/* columns rows colors chars-per-pixel */
"34 46 3 1 ",
"  c #000000",
". c #ffffff",
"X c None",
/* pixels */
"XXXXXXXXXX    XXXXXXXXXXXXXXXXXXXX",
"XXXXXXXXXX    XXXXXXXXXXXXXXXXXXXX",
"XXXXXXXX  ....  XXXXXXXXXXXXXXXXXX",
"XXXXXXXX  ....  XXXXXXXXXXXXXXXXXX",
"XXXXXXXX  ....  XXXXXXXXXXXXXXXXXX",
"XXXXXXXX  ....  XXXXXXXXXXXXXXXXXX",
"XXXXXXXX  ....  XXXXXXXXXXXXXXXXXX",
"XXXXXXXX  ....  XXXXXXXXXXXXXXXXXX",
"XXXXXXXX  ....  XXXXXXXXXXXXXXXXXX",
"XXXXXXXX  ....  XXXXXXXXXXXXXXXXXX",
"XXXXXXXX  ....      XXXXXXXXXXXXXX",
"XXXXXXXX  ....      XXXXXXXXXXXXXX",
"XXXXXXXX  ....  ....      XXXXXXXX",
"XXXXXXXX  ....  ....      XXXXXXXX",
"XXXXXXXX  ....  ....  ....    XXXX",
"XXXXXXXX  ....  ....  ....    XXXX",
"XXXXXXXX  ....  ....  ....  ..  XX",
"XXXXXXXX  ....  ....  ....  ..  XX",
"XXXXXXXX  ....  ....  ....  ....  ",
"XXXXXXXX  ....  ....  ....  ....  ",
"      XX  ....  ....  ....  ....  ",
"      XX  ....  ....  ....  ....  ",
"  ....    ......................  ",
"  ....    ......................  ",
"  ......  ......................  ",
"  ......  ......................  ",
"XX  ....  ......................  ",
"XX  ....  ......................  ",
"XXXX  ..........................  ",
"XXXX  ..........................  ",
"XXXX  ..........................  ",
"XXXX  ..........................  ",
"XXXXXX  ........................  ",
"XXXXXX  ........................  ",
"XXXXXX  ......................  XX",
"XXXXXX  ......................  XX",
"XXXXXXXX  ....................  XX",
"XXXXXXXX  ....................  XX",
"XXXXXXXX  ....................  XX",
"XXXXXXXX  ....................  XX",
"XXXXXXXXXX  ................  XXXX",
"XXXXXXXXXX  ................  XXXX",
"XXXXXXXXXX  ................  XXXX",
"XXXXXXXXXX  ................  XXXX",
"XXXXXXXXXX                    XXXX",
"XXXXXXXXXX                    XXXX"
};
