/* XPM */
static char *pixil_frame_0__6_1717021168[] = {
/* columns rows colors chars-per-pixel */
"24 42 3 1 ",
"  c None",
". c black",
"X c white",
/* pixels */
"                        ",
"                        ",
"..                      ",
"..                      ",
"....                    ",
"....                    ",
"..XX..                  ",
"..XX..                  ",
"..XXXX..                ",
"..XXXX..                ",
"..XXXXXX..              ",
"..XXXXXX..              ",
"..XXXXXXXX..            ",
"..XXXXXXXX..            ",
"..XXXXXXXXXX..          ",
"..XXXXXXXXXX..          ",
"..XXXXXXXXXXXX..        ",
"..XXXXXXXXXXXX..        ",
"..XXXXXXXXXXXXXX..      ",
"..XXXXXXXXXXXXXX..      ",
"..XXXXXXXXXXXXXXXX..    ",
"..XXXXXXXXXXXXXXXX..    ",
"..XXXXXXXXXXXXXXXXXX..  ",
"..XXXXXXXXXXXXXXXXXX..  ",
"..XXXXXXXXXXXXXXXXXXXX..",
"..XXXXXXXXXXXXXXXXXXXX..",
"..XXXXXXXXXXXX..........",
"..XXXXXXXXXXXX..........",
"..XXXXXXXXXXXX..        ",
"..XXXXXXXXXXXX..        ",
"..XXXXXX..XXXX..        ",
"..XXXXXX..XXXX..        ",
"..XXXX..  ..XXXX..      ",
"..XXXX..  ..XXXX..      ",
"..XX..    ..XXXX..      ",
"..XX..    ..XXXX..      ",
"....        ..XXXX..    ",
"....        ..XXXX..    ",
"            ..XXXX..    ",
"            ..XXXX..    ",
"              ....      ",
"              ....      "
};
