/* XPM */
static char *pixil_frame_0__11_1717021769[] = {
/* columns rows colors chars-per-pixel */
"17 23 2 1 ",
"  c None",
". c black",
/* pixels */
"  .              ",
"  ..             ",
"  . .            ",
"  .  .           ",
"  .   .          ",
"  .    .         ",
"  .     .        ",
"  .      .       ",
"  .       .      ",
"  .        .     ",
"  .         .    ",
"  .          .   ",
"  .           .  ",
"  .            . ",
"  .        ..... ",
"  .        .     ",
"  .    .   .     ",
"  .   . .   .    ",
"  .  .  .   .    ",
"  . .   .   .    ",
"  ..     .   .   ",
"         .   .   ",
"          ...    "
};
