/* XPM */
static xpm_row_t const bola4Xpm[] = {
/* columns rows colors chars-per-pixel */
"30 30 4 1 ",
"  c None",
". c #000000",
"X c #6F3198",
"o c #FFFFFF",
/* pixels */
"            XXXXXXX           ",
"         XXXXXXXXXXXXX        ",
"       XXXXXXXXXXXXXXXXX      ",
"      XXXXXXXXXXXXXXXXXXX     ",
"     XXXXXXXXXXXXXXXXXXXXX    ",
"    XXXXXXXXXXXXXXXXXXXXXXX   ",
"   XXXXXXXXXXXXXXXXXXXXXXXXX  ",
"   XXXXXXXXXXoooooXXXXXXXXXX  ",
"  XXXXXXXXXoooooooooXXXXXXXXX ",
"  XXXXXXXXoooooooooooXXXXXXXX ",
"  XXXXXXXoooooooooooooXXXXXXX ",
" XXXXXXXXooooooo.oooooXXXXXXXX",
" XXXXXXXooooooo..ooooooXXXXXXX",
" XXXXXXXoooooo.o.ooooooXXXXXXX",
" XXXXXXXooooo.oo.ooooooXXXXXXX",
" XXXXXXXooooo.....oooooXXXXXXX",
" XXXXXXXoooooooo.ooooooXXXXXXX",
" XXXXXXXXoooooooooooooXXXXXXXX",
"  XXXXXXXoooooooooooooXXXXXXX ",
"  XXXXXXXXoooooooooooXXXXXXXX ",
"  XXXXXXXXXoooooooooXXXXXXXXX ",
"   XXXXXXXXXXoooooXXXXXXXXXX  ",
"   XXXXXXXXXXXXXXXXXXXXXXXXX  ",
"    XXXXXXXXXXXXXXXXXXXXXXX   ",
"     XXXXXXXXXXXXXXXXXXXXX    ",
"      XXXXXXXXXXXXXXXXXXX     ",
"       XXXXXXXXXXXXXXXXX      ",
"         XXXXXXXXXXXXX        ",
"            XXXXXXX           ",
"                              "
};
