/* XPM */
static xpm_row_t const ellipsesBallXpm[] = {
/* columns rows colors chars-per-pixel */
"39 39 3 1 ",
"  c #000000",
". c #FFFFFF",
"X c None",
/* pixels */
"XXXXXXXXXXXXXXX          XXXXXXXXXXXXXX",
"XXXXXXXXXXXX                XXXXXXXXXXX",
"XXXXXXXXXX                    XXXXXXXXX",
"XXXXXXXXX                      XXXXXXXX",
"XXXXXXXX                        XXXXXXX",
"XXXXXXX                          XXXXXX",
"XXXXXX                            XXXXX",
"XXXXX                              XXXX",
"XXXX                                XXX",
"XXX                                  XX",
"XXX                                  XX",
"XX                 ......             X",
"XX               ..........           X",
"XX             ..............         X",
"X             ......      ....         ",
"X             ......        ..         ",
"X            ......   ..    ...        ",
"X            ......   ...   ...        ",
"X           .......  .....  ....       ",
"X           .......   ...   ....       ",
"X           .....       .   ....       ",
"X           ....   .       .....       ",
"X           ....   ...   .......       ",
"X           ....  .....  .......       ",
"XX           ...  ....   ......       X",
"XX           ...    ..   ......       X",
"XX            ..        ......        X",
"XXX           ....      ......       XX",
"XXX            ..............        XX",
"XXXX             ..........         XXX",
"XXXXX              .....           XXXX",
"XXXXXX                            XXXXX",
"XXXXXXX                          XXXXXX",
"XXXXXXXX                        XXXXXXX",
"XXXXXXXXX                      XXXXXXXX",
"XXXXXXXXXX                    XXXXXXXXX",
"XXXXXXXXXXXX                XXXXXXXXXXX",
"XXXXXXXXXXXXXXX          XXXXXXXXXXXXXX",
"XXXXXXXXXXXXXXXXXXXXXXXXXXXXXXXXXXXXXXX"
};
