/* XPM */
static xpm_row_t const ballSlot12Xpm[] = {
/* columns rows colors chars-per-pixel */
"32 32 5 1 ",
"  c #000000",
". c #353636",
"X c #6F3198",
"o c #FFFFFF",
"O c None",
/* pixels */
"OOOOOOOOOOOOO.......OOOOOOOOOOOO",
"OOOOOOOOOO...ooooooo...OOOOOOOOO",
"OOOOOOOO..ooooooooooooo..OOOOOOO",
"OOOOOOO.ooooooooooooooooo.OOOOOO",
"OOOOOO.ooooooooooooooooooo.OOOOO",
"OOOOO.ooooooooooooooooooooo.OOOO",
"OOOO.XXXXXXXXXXXXXXXXXXXXXXX.OOO",
"OOO.XXXXXXXXXXXXXXXXXXXXXXXXX.OO",
"OOO.XXXXXXXXXXoooooXXXXXXXXXX.OO",
"OO.XXXXXXXXXoooooooooXXXXXXXXX.O",
"OO.XXXXXXXXoooooooooooXXXXXXXX.O",
"OO.XXXXXXXoooooooooooooXXXXXXX.O",
"O.XXXXXXXXoooo ooo  oooXXXXXXXX.",
"O.XXXXXXXoooo  oo oo oooXXXXXXX.",
"O.XXXXXXXooooo ooooo oooXXXXXXX.",
"O.XXXXXXXooooo oooo ooooXXXXXXX.",
"O.XXXXXXXooooo ooo oooooXXXXXXX.",
"O.XXXXXXXoooo   o    oooXXXXXXX.",
"O.XXXXXXXXoooooooooooooXXXXXXXX.",
"OO.XXXXXXXoooooooooooooXXXXXXX.O",
"OO.XXXXXXXXoooooooooooXXXXXXXX.O",
"OO.XXXXXXXXXoooooooooXXXXXXXXX.O",
"OOO.XXXXXXXXXXoooooXXXXXXXXXX.OO",
"OOO.XXXXXXXXXXXXXXXXXXXXXXXXX.OO",
"OOOO.XXXXXXXXXXXXXXXXXXXXXXX.OOO",
"OOOOO.ooooooooooooooooooooo.OOOO",
"OOOOOO.ooooooooooooooooooo.OOOOO",
"OOOOOOO.ooooooooooooooooo.OOOOOO",
"OOOOOOOO..ooooooooooooo..OOOOOOO",
"OOOOOOOOOO...ooooooo...OOOOOOOOO",
"OOOOOOOOOOOOO.......OOOOOOOOOOOO",
"OOOOOOOOOOOOOOOOOOOOOOOOOOOOOOOO"
};
